<svg data-name="Camada 1" xmlns="http://www.w3.org/2000/svg" viewBox="0 0 41.37 43"><path d="M40.87 3.38A2.88 2.88 0 0 0 38 .5H3.38A2.88 2.88 0 0 0 .5 3.38V35.1A2.89 2.89 0 0 0 3.38 38h15.86l6.41 4.27a1.44 1.44 0 0 0 2.24-1.2V38H38a2.89 2.89 0 0 0 2.88-2.89Z" fill="#3df" stroke="#231f20" stroke-linecap="round" stroke-linejoin="round"/><circle cx="20.68" cy="20.01" r="10.76" fill="#ebb383" stroke="#231f20" stroke-linecap="round" stroke-linejoin="round"/><ellipse cx="21.41" cy="26.45" rx="1.8" ry="2.16" fill="#1d1d1b" stroke="#231f20" stroke-linecap="round" stroke-linejoin="round"/><path d="M21.41 25.73a2.16 2.16 0 0 0-1.79.94 2 2 0 0 0 1.79 1.94 2 2 0 0 0 1.78-1.94 2.15 2.15 0 0 0-1.78-.94Z" fill="#ff3446" stroke="#231f20" stroke-linecap="round" stroke-linejoin="round"/><circle cx="15.47" cy="24.24" r="1.15" fill="#eb8561"/><circle cx="27.43" cy="24.24" r="1.15" fill="#eb8561"/><path fill="none" stroke="#231f20" stroke-linecap="round" stroke-linejoin="round" d="M17.61 20.78v.77M25.3 20.78v.77"/><path d="M34.86 13.8a2.83 2.83 0 0 0-2.42-2.8 2.82 2.82 0 0 0-2.25-3.3 2.76 2.76 0 0 0-1.58.16 2.82 2.82 0 0 0-3.46-2 2.76 2.76 0 0 0-1.27.73 3.77 3.77 0 0 0-5.18-1.2 3.88 3.88 0 0 0-1.21 1.21 2.82 2.82 0 0 0-4.8 1.65 2.83 2.83 0 0 0-3.84 3.24 2.83 2.83 0 0 0-2.3 3.26 2.8 2.8 0 0 0 .75 1.47 2.35 2.35 0 1 0 3.7 2.71A2.79 2.79 0 0 0 14.3 17a3 3 0 0 0 4.12-.4 3 3 0 0 0 4.21.32 2.42 2.42 0 0 0 .32-.32 3 3 0 0 0 4.2.33h0a2.81 2.81 0 0 0 3.13.6 2.35 2.35 0 1 0 4.1-2.21 2.9 2.9 0 0 0 .48-1.52Z" fill="#804600" stroke="#231f20" stroke-linecap="round" stroke-linejoin="round"/></svg>