<svg xmlns="http://www.w3.org/2000/svg" width="20.181" height="24" viewBox="0 0 20.181 24">
  <path id="apple" d="M110.558,73.553a18.278,18.278,0,0,1-1.894,3.725c-.316.568-1.831,2.715-3.662,2.715-1.326,0-2.21-.947-3.915-.947-2.084,0-2.9.947-4.23.947a2.935,2.935,0,0,1-2.147-1.01c-4.862-4.609-5.114-11.428-3.283-14.206a6.254,6.254,0,0,1,5.114-3.031c1.642,0,3.41,1.073,4.1,1.073.505,0,3.157-1.263,4.672-1.137a5.96,5.96,0,0,1,4.609,2.4A5.289,5.289,0,0,0,110.558,73.553ZM105.443,56c.505,2.02-1.7,5.872-4.988,5.683A5.571,5.571,0,0,1,105.443,56Z" transform="translate(-90.377 -56)" fill="#f2f2f2"/>
</svg>
