<svg xmlns="http://www.w3.org/2000/svg" width="12" height="12" viewBox="0 0 12 12">
    <path id="Caminho_3" data-name="Caminho 3"
        d="M15.43,9.43a6,6,0,1,0,6,6A6,6,0,0,0,15.43,9.43Zm-1.74,8.7a.294.294,0,0,1-.3.283h-.8a.294.294,0,0,1-.3-.283V15.7a.294.294,0,0,1,.3-.283h.8a.294.294,0,0,1,.3.283Zm4.684-1.563a.441.441,0,0,0-.119.368.576.576,0,0,1-.183.534.454.454,0,0,0-.138.417c.049.292-.1.706-1.4.645l-1.686-.04a.375.375,0,0,1-.044,0c-.139-.017-.865-.122-.81-.444l0-2.258a.45.45,0,0,1,.035-.173l.952-1.865A.2.2,0,0,0,15,13.655v-.874a.443.443,0,0,1,.219-.386.476.476,0,0,1,.553.038c.427.316.437.487.437.487a2.648,2.648,0,0,1,.112,1.087.449.449,0,0,0,.444.519h.97l.047,0a.631.631,0,0,1,.585.888.432.432,0,0,0,.073.4A.519.519,0,0,1,18.374,16.566Z"
        transform="translate(-9.43 -9.43)" fill="#b0b3b8" />
</svg>