<svg xmlns="http://www.w3.org/2000/svg" width="111.729" height="86.668">
	<g fill="none" stroke="#a19d9d" stroke-linecap="round" stroke-linejoin="round" stroke-width="2">
		<path data-name="Caminho 5"
			d="M59.154 39.868a28.887 28.887 0 0 1-.8 13.4 29.413 29.413 0 0 1-23 20.5 28.887 28.887 0 0 1-13.4-.8l-18.2 9.9 3-20.5a28.055 28.055 0 0 1-5.3-12.4 29.361 29.361 0 0 1 11.4-28.6 28.055 28.055 0 0 1 12.4-5.3l1.7-.3a29.3 29.3 0 0 1 32 22.4Z" />
		<path data-name="Caminho 6"
			d="M95.854 8.368a37.047 37.047 0 0 0-15.5-6.7l-2.1-.4a36.847 36.847 0 0 0-35.5 16.9 29.536 29.536 0 0 1 16.1 20l.3 1.7a29.453 29.453 0 0 1-8.8 26.4 37.561 37.561 0 0 0 17.1 8 35.875 35.875 0 0 0 16.9-1l22.9 12.4-3.8-25.8a36.784 36.784 0 0 0-7.6-51.5Z" />
	</g>
</svg>