<svg version="1.2" baseProfile="tiny" xmlns="http://www.w3.org/2000/svg" viewBox="0 0 48 48" overflow="visible" xml:space="preserve"><path fill="#FED947" d="M1.8 42.4V3.5C1.8 1.9 3 .7 4.6.7h29.2c1.6 0 2.8 1.3 2.8 2.8v40.2"/><path fill="#FECC30" d="M34.5.7H4.7c-1.1 0-2.1.7-2.6 1.7.4-.2.8-.2 1.2-.2h30.8c1-.1 1.9.8 1.9 1.8v39.6h1.4V3.5C37.4 2 36.1.7 34.5.7z"/><path fill="#E1E1E3" d="M5.4 38.8h32v7.1h-32c-2 0-3.6-1.6-3.6-3.6s1.6-3.5 3.6-3.5z"/><path fill="#DADADC" d="M36 38.8h1.4v7.1H36v-7.1z"/><path fill="#EB304A" d="m13.5 48-2.9-1.9L7.7 48v-5.8h5.8V48z"/><path fill="#E4222E" d="M12.1 42.2V47l1.4.9v-5.8h-1.4z"/><path fill="#AEADB3" d="M16 42.9H5.1c-.4 0-.7-.3-.7-.7s.3-.7.7-.7H16c.4 0 .7.3.7.7s-.3.7-.7.7z"/><path fill="#F9A242" d="M31.4 8.8H6.2c-.4 0-.7-.4-.7-.8s.3-.7.7-.7h25.1c.4 0 .7.3.7.7.1.4-.2.8-.6.8zm0 3.3H6.2c-.4 0-.7-.3-.7-.7 0-.4.3-.7.7-.7h25.1c.4 0 .7.3.7.7s-.2.7-.6.7zm-8.5 3.3H6.2c-.4 0-.7-.3-.7-.7s.3-.7.7-.7h16.6c.4 0 .7.3.7.7s-.2.7-.6.7z"/><path fill="#E1E1E3" d="m39.3 30.9-2.2.6 1.1 2.4-.3 1c-.7 2.1-2.8 3.4-5.5 3.6-1 0-2-.4-2.6-1.2-1.5-2.2-1.8-4.6-.6-6.5l9.4-15.2c1-1.6 2.7-2.6 4.5-3h.1c1 1.7 1.2 3.7.6 5.6 0-.1-4.5 12.7-4.5 12.7z"/><path fill="#C8C5CC" d="M43.2 12.5h-.1l-1.2.3c.9 1.6 1 3.5.5 5.3l-4.5 12.8-2.2.6 1.1 2.4-.3 1c-.7 1.9-2.5 3.2-4.8 3.5.3.1.5.1.8.1 2.7-.2 4.7-1.5 5.5-3.6l.3-1-1.1-2.4 2.2-.6 4.5-12.8c.5-1.9.3-3.9-.7-5.6z"/><path fill="#AEADB3" d="M26.7 47.7c-.4 0-.7-.3-.7-.7 0-.1 0-.2.1-.3l12.4-25.9c.2-.3.6-.5 1-.3.3.2.5.6.3.9L27.4 47.3c-.1.2-.4.4-.7.4z"/></svg>