<svg version="1.1" id="Camada_1" xmlns="http://www.w3.org/2000/svg" x="0" y="0" viewBox="0 0 48 48" xml:space="preserve"><style>.st2{fill:#e1e1e3}.st6{fill:#aeadb3}.st7{fill:#f9a242}</style><linearGradient id="SVGID_1_" gradientUnits="userSpaceOnUse" x1="0" y1="0" x2="0" y2="-1"><stop offset="0" stop-color="#656565"/><stop offset=".62" stop-color="#1b1b1b"/><stop offset=".63" stop-color="#545454"/><stop offset=".98" stop-color="#3e3e3e"/></linearGradient><path d="M1.82 42.37V3.55A2.82 2.82 0 0 1 4.61.7h29.18a2.82 2.82 0 0 1 2.79 2.85V43.7" fill="#fed947"/><path d="M34.55.69H4.68c-1.12 0-2.14.66-2.6 1.68.37-.17.77-.25 1.18-.25h30.83c1.05 0 1.9.85 1.9 1.9v39.62l1.43.05V3.55A2.87 2.87 0 0 0 34.55.69z" fill="#fecc30"/><path class="st2" d="M5.39 38.75h32.02v7.14H5.39a3.57 3.57 0 0 1 0-7.14z"/><path fill="#dadadc" d="M35.98 38.75h1.43v7.14h-1.43z"/><path fill="#eb304a" d="m13.48 47.98-2.9-1.9-2.91 1.9v-5.8h5.81z"/><path fill="#e4222e" d="M12.05 42.18v4.86l1.43.94v-5.8z"/><path class="st6" d="M16.01 42.89H5.14c-.39 0-.71-.32-.71-.71s.32-.71.71-.71h10.87c.39 0 .71.32.71.71s-.32.71-.71.71z"/><path class="st7" d="M31.36 8.75H6.22a.71.71 0 0 1-.71-.71c0-.39.32-.71.71-.71h25.14c.39 0 .71.32.71.71 0 .39-.32.71-.71.71zm0 3.33H6.22a.71.71 0 0 1-.71-.71c0-.39.32-.71.71-.71h25.14c.39 0 .71.32.71.71 0 .39-.32.71-.71.71zM22.87 15.41H6.22c-.39 0-.71-.32-.71-.71s.32-.71.71-.71h16.65c.39 0 .71.32.71.71s-.32.71-.71.71z"/><g><path class="st2" d="m39.27 30.93-2.15.59 1.1 2.39-.34.96c-.73 2.07-2.8 3.43-5.47 3.6a3.11 3.11 0 0 1-2.62-1.25c-1.55-2.18-1.78-4.64-.63-6.51l9.41-15.25a6.89 6.89 0 0 1 4.49-2.97l.08-.02.02.03a6.94 6.94 0 0 1 .64 5.6l-4.53 12.83z"/><path d="m43.16 12.49-.02-.03-.08.02c-.39.09-.78.2-1.16.34a6.83 6.83 0 0 1 .47 5.27l-4.53 12.83-2.15.59 1.1 2.39-.34.96c-.67 1.9-2.47 3.2-4.82 3.53.26.06.52.08.78.07 2.67-.17 4.74-1.52 5.47-3.6l.34-.96-1.1-2.39 2.15-.59 4.53-12.83a6.9 6.9 0 0 0-.64-5.6z" fill="#c8c5cc"/><path class="st6" d="M26.73 47.69a.71.71 0 0 1-.64-1.02l12.37-25.86a.73.73 0 0 1 .96-.32c.34.17.49.58.33.93L27.37 47.29a.7.7 0 0 1-.64.4z"/></g></svg>