<svg xmlns="http://www.w3.org/2000/svg" width="24" height="24.55" viewBox="0 0 24 24.55">
  <g id="google" transform="translate(-70.039 -65.171)">
    <path id="Caminho_170" data-name="Caminho 170" d="M268.121,232.536A12.86,12.86,0,0,0,271.536,221H260v4.769h6.574a5.428,5.428,0,0,1-2.449,3.674Z" transform="translate(-177.718 -145.786)" fill="#4285f4"/>
    <path id="Caminho_171" data-name="Caminho 171" d="M90,295.158a12.374,12.374,0,0,0,19.077,3.8l-4-3.094A7.386,7.386,0,0,1,94.06,292Z" transform="translate(-18.674 -212.21)" fill="#34a853"/>
    <path id="Caminho_172" data-name="Caminho 172" d="M75.386,177.863a7.349,7.349,0,0,1,0-4.7L71.326,170a12.453,12.453,0,0,0,0,11.021Z" transform="translate(0 -98.073)" fill="#fbbc02"/>
    <path id="Caminho_173" data-name="Caminho 173" d="M94.06,75.086c1.418-4.447,7.476-7.025,11.536-3.222l3.545-3.48A12.169,12.169,0,0,0,90,71.927Z" transform="translate(-18.674)" fill="#ea4335"/>
  </g>
</svg>
