<svg xmlns="http://www.w3.org/2000/svg" width="89.941" height="24" viewBox="0 0 89.941 24">
    <path id="history_name"
        d="M443.245,238.71h3.436v18.9h-3.436v-8.372h-8.209v8.372H431.6v-18.9h3.436v7.554h8.209Zm7.772,4.646h3.273v14.318h-3.273Zm3.273-1.364h-3.273v-2.454l3.273-.545Zm7.854,13.245a4.347,4.347,0,0,0,1.909-.314,1.115,1.115,0,0,0,.6-1.077,1.4,1.4,0,0,0-.641-1.173,9.4,9.4,0,0,0-2.114-1.009,16.748,16.748,0,0,1-1.65-.7,5.633,5.633,0,0,1-1.3-.859,3.512,3.512,0,0,1-.859-1.186,4.124,4.124,0,0,1-.314-1.7,3.716,3.716,0,0,1,1.445-3.1,6.212,6.212,0,0,1,3.927-1.132,12.113,12.113,0,0,1,2.4.232,11.562,11.562,0,0,1,1.718.45l-.6,2.673a8.114,8.114,0,0,0-1.391-.45,8.4,8.4,0,0,0-1.964-.2,3.415,3.415,0,0,0-1.636.341,1.118,1.118,0,0,0-.627,1.05,1.515,1.515,0,0,0,.123.627,1.347,1.347,0,0,0,.423.5,4.344,4.344,0,0,0,.791.464,12.267,12.267,0,0,0,1.2.477,18.142,18.142,0,0,1,1.991.859,5.4,5.4,0,0,1,1.35.955,3.269,3.269,0,0,1,.777,1.214,4.843,4.843,0,0,1,.245,1.636,3.524,3.524,0,0,1-1.514,3.1,7.539,7.539,0,0,1-4.323,1.05,11.853,11.853,0,0,1-3.027-.314,15.731,15.731,0,0,1-1.609-.5l.573-2.754a14.715,14.715,0,0,0,1.759.573A9.094,9.094,0,0,0,462.144,255.237Zm8.726-15.654,3.3-.545v4.309h5.073V246.1H474.17v5.809a4.217,4.217,0,0,0,.545,2.454,2.16,2.16,0,0,0,1.854.736,6.007,6.007,0,0,0,1.6-.191,10.675,10.675,0,0,0,1.1-.355l.545,2.618a12.487,12.487,0,0,1-1.5.5,8.141,8.141,0,0,1-2.182.259,6.9,6.9,0,0,1-2.55-.409,3.758,3.758,0,0,1-1.623-1.186,4.708,4.708,0,0,1-.845-1.882,11.7,11.7,0,0,1-.245-2.523Zm24.135,10.881a9.207,9.207,0,0,1-.491,3.082,6.823,6.823,0,0,1-1.391,2.373,6.242,6.242,0,0,1-2.168,1.527,6.992,6.992,0,0,1-2.8.545,6.893,6.893,0,0,1-2.782-.545,6.3,6.3,0,0,1-2.154-1.527,7,7,0,0,1-1.4-2.373,8.969,8.969,0,0,1-.5-3.082,8.852,8.852,0,0,1,.5-3.068,6.9,6.9,0,0,1,1.418-2.359,6.277,6.277,0,0,1,2.168-1.514,6.986,6.986,0,0,1,2.754-.532,7.088,7.088,0,0,1,2.768.532,6.1,6.1,0,0,1,2.168,1.514,7.028,7.028,0,0,1,1.4,2.359A8.852,8.852,0,0,1,495.005,250.464Zm-3.382,0a5.564,5.564,0,0,0-.914-3.368,3.24,3.24,0,0,0-5.1,0,5.564,5.564,0,0,0-.914,3.368,5.674,5.674,0,0,0,.914,3.409,3.219,3.219,0,0,0,5.1,0A5.677,5.677,0,0,0,491.624,250.464Zm14.918-4.145a10.331,10.331,0,0,0-1.132-.286,8.352,8.352,0,0,0-1.677-.15,6.679,6.679,0,0,0-1.159.109,6.886,6.886,0,0,0-.859.191v11.427h-3.3V244.028a18.157,18.157,0,0,1,2.386-.668,14.909,14.909,0,0,1,3.177-.314c.218,0,.473.014.764.041s.582.064.873.109a11.174,11.174,0,0,1,1.5.341Zm15-2.973a103.93,103.93,0,0,1-5.118,14.727,14.876,14.876,0,0,1-1.119,2.1,6.215,6.215,0,0,1-1.283,1.445,4.573,4.573,0,0,1-1.583.832,7.593,7.593,0,0,1-3.536.1,5.117,5.117,0,0,1-1.133-.354l.6-2.645a5.354,5.354,0,0,0,1.946.382,3.028,3.028,0,0,0,2.014-.614,5.023,5.023,0,0,0,1.274-1.9q-1.653-3.2-3-6.545a72.007,72.007,0,0,1-2.561-7.527h3.518q.274,1.145.671,2.482.823,2.76,1.848,5.454.486,1.282,1.04,2.536.909-2.553,1.629-5.168.761-2.741,1.384-5.3Z"
        transform="translate(-431.6 -238.71)" fill="#c9d1d9" />
</svg>