<svg xmlns="http://www.w3.org/2000/svg" viewBox="0 0 1366 768" style="enable-background:new 0 0 1366 768" xml:space="preserve"><path d="M517 238.71h25.2v138.6H517v-61.4h-60.2v61.4h-25.2v-138.6h25.2v55.4H517v-55.4zm57 34.07h24v105h-24zm24-10h-24v-18l24-4zm57.6 97.13c6.4 0 11.07-.77 14-2.3 2.93-1.53 4.4-4.17 4.4-7.9 0-3.47-1.57-6.33-4.7-8.6-3.13-2.27-8.3-4.73-15.5-7.4-4.4-1.6-8.43-3.3-12.1-5.1a41.3 41.3 0 0 1-9.5-6.3 25.75 25.75 0 0 1-6.3-8.7c-1.54-3.4-2.3-7.57-2.3-12.5 0-9.6 3.53-17.17 10.6-22.7 7.07-5.53 16.67-8.3 28.8-8.3 6.13 0 12 .57 17.6 1.7 5.6 1.13 9.8 2.23 12.6 3.3l-4.4 19.6a59.5 59.5 0 0 0-10.2-3.3 61.6 61.6 0 0 0-14.4-1.5c-4.93 0-8.93.83-12 2.5a8.2 8.2 0 0 0-4.6 7.7c0 1.73.3 3.27.9 4.6a9.88 9.88 0 0 0 3.1 3.7 31.87 31.87 0 0 0 5.8 3.4c2.4 1.13 5.33 2.3 8.8 3.5 5.73 2.13 10.6 4.23 14.6 6.3 4 2.07 7.3 4.4 9.9 7 2.6 2.6 4.5 5.57 5.7 8.9 1.2 3.33 1.8 7.33 1.8 12 0 10-3.7 17.57-11.1 22.7-7.4 5.13-17.97 7.7-31.7 7.7-9.2 0-16.6-.77-22.2-2.3-5.6-1.53-9.53-2.77-11.8-3.7l4.2-20.2c3.6 1.47 7.9 2.87 12.9 4.2s10.7 2 17.1 2zm63.99-114.8 24.2-4v31.6h37.2v20.2h-37.2v42.6c0 8.4 1.33 14.4 4 18 2.67 3.6 7.2 5.4 13.6 5.4 4.4 0 8.3-.46 11.7-1.4 3.4-.93 6.1-1.8 8.1-2.6l4 19.2a91.56 91.56 0 0 1-11 3.7c-4.53 1.27-9.87 1.9-16 1.9-7.47 0-13.7-1-18.7-3s-8.97-4.9-11.9-8.7c-2.93-3.8-5-8.4-6.2-13.8a85.76 85.76 0 0 1-1.8-18.5v-90.6zm177 79.8c0 8.27-1.2 15.8-3.6 22.6-2.4 6.8-5.8 12.6-10.2 17.4-4.4 4.8-9.7 8.54-15.9 11.2-6.2 2.67-13.03 4-20.5 4-7.47 0-14.27-1.33-20.4-4a46.17 46.17 0 0 1-15.8-11.2 51.32 51.32 0 0 1-10.3-17.4c-2.47-6.8-3.7-14.33-3.7-22.6 0-8.27 1.23-15.77 3.7-22.5a50.63 50.63 0 0 1 10.4-17.3c4.47-4.8 9.77-8.5 15.9-11.1a51.23 51.23 0 0 1 20.2-3.9c7.33 0 14.1 1.3 20.3 3.9 6.2 2.6 11.5 6.3 15.9 11.1s7.83 10.57 10.3 17.3c2.47 6.73 3.7 14.23 3.7 22.5zm-24.8 0c0-10.4-2.23-18.63-6.7-24.7-4.47-6.07-10.7-9.1-18.7-9.1s-14.23 3.03-18.7 9.1c-4.47 6.07-6.7 14.3-6.7 24.7 0 10.54 2.23 18.87 6.7 25 4.47 6.13 10.7 9.2 18.7 9.2s14.23-3.07 18.7-9.2c4.47-6.13 6.7-14.47 6.7-25zm109.4-30.4c-2-.67-4.77-1.37-8.3-2.1a61.24 61.24 0 0 0-12.3-1.1c-2.67 0-5.5.27-8.5.8s-5.1 1-6.3 1.4v83.8h-24.2v-99.6c4.67-1.73 10.5-3.37 17.5-4.9 7-1.53 14.77-2.3 23.3-2.3 1.6 0 3.47.1 5.6.3 2.13.2 4.27.47 6.4.8a82 82 0 0 1 11 2.5l-4.2 20.4zm110-21.8c-10.78 39.73-23.29 75.73-37.53 108-2.67 6-5.41 11.13-8.21 15.4a45.57 45.57 0 0 1-9.41 10.6 33.53 33.53 0 0 1-11.61 6.1 52.13 52.13 0 0 1-14.82 1.9 52 52 0 0 1-11.11-1.2c-3.67-.8-6.44-1.67-8.31-2.6l4.4-19.4a39.26 39.26 0 0 0 14.27 2.8c6.29 0 11.22-1.5 14.77-4.5s6.66-7.63 9.34-13.9a561.74 561.74 0 0 1-22-48 527.98 527.98 0 0 1-18.78-55.2h25.8c1.34 5.6 2.98 11.67 4.92 18.2a573.86 573.86 0 0 0 13.55 40 377.31 377.31 0 0 0 7.63 18.6 545.04 545.04 0 0 0 11.95-37.9c3.72-13.4 7.1-26.37 10.15-38.9h25z" style="fill:#c9d1d9"/></svg>