<svg xmlns="http://www.w3.org/2000/svg" width="190.249" height="60" viewBox="0 0 190.249 60">
    <g id="history_logo_full" transform="translate(-149.36 -178.19)">
        <path id="Caminho_195" data-name="Caminho 195" d="M256.532,357.97h.063V328.29L238.52,343.157Z"
            transform="translate(-71.15 -119.78)" fill="#1a222e" />
        <path id="Caminho_196" data-name="Caminho 196" d="M149.36,328.29l18.073,14.948,18.012-14.9v-.05Z"
            transform="translate(0 -119.78)" fill="#263347" />
        <path id="Caminho_197" data-name="Caminho 197" d="M149.36,328.55v29.627l18.01-14.813Z"
            transform="translate(0 -119.987)" fill="#394e6f" />
        <path id="Caminho_198" data-name="Caminho 198" d="M256.842,208.71V178.44L238.83,193.576Z"
            transform="translate(-71.397 -0.199)" fill="#40577c" />
        <path id="Caminho_199" data-name="Caminho 199" d="M149.36,268.3l18.073-15.186,18.012,15.136v.051Z"
            transform="translate(0 -59.786)" fill="#506a99" />
        <path id="Caminho_200" data-name="Caminho 200" d="M149.36,178.19v30.373l18.073-15.186Z" fill="#607db7" />
        <path id="Caminho_201" data-name="Caminho 201" d="M149.36,178.19l18.073,15.186,18.012-15.136v-.051Z"
            fill="#7291d5" />
        <path id="Caminho_202" data-name="Caminho 202"
            d="M448.851,238.71h5.09v28h-5.09V254.3H436.69v12.4H431.6v-28h5.09V249.9h12.161Zm11.514,6.882h4.848V266.8h-4.848Zm4.848-2.02h-4.848v-3.636l4.848-.808Zm11.635,19.62a6.438,6.438,0,0,0,2.828-.465,1.652,1.652,0,0,0,.889-1.6,2.071,2.071,0,0,0-.949-1.737,13.918,13.918,0,0,0-3.131-1.495,24.816,24.816,0,0,1-2.444-1.03,8.341,8.341,0,0,1-1.919-1.273,5.2,5.2,0,0,1-1.273-1.757,6.11,6.11,0,0,1-.465-2.525,5.505,5.505,0,0,1,2.141-4.585,9.2,9.2,0,0,1,5.818-1.677,17.943,17.943,0,0,1,3.555.343,17.124,17.124,0,0,1,2.545.667l-.889,3.959a12.017,12.017,0,0,0-2.06-.667,12.447,12.447,0,0,0-2.909-.3,5.059,5.059,0,0,0-2.424.505,1.656,1.656,0,0,0-.929,1.555,2.245,2.245,0,0,0,.182.929,2,2,0,0,0,.626.747,6.436,6.436,0,0,0,1.172.687,18.158,18.158,0,0,0,1.778.707,26.885,26.885,0,0,1,2.949,1.273,8,8,0,0,1,2,1.414,4.841,4.841,0,0,1,1.151,1.8,7.173,7.173,0,0,1,.364,2.424,5.221,5.221,0,0,1-2.242,4.585,11.168,11.168,0,0,1-6.4,1.555,17.559,17.559,0,0,1-4.484-.465,23.308,23.308,0,0,1-2.384-.747l.848-4.08a21.783,21.783,0,0,0,2.606.848A13.469,13.469,0,0,0,476.848,263.192ZM489.774,240l4.888-.808v6.383h7.514v4.08h-7.514v8.605a6.247,6.247,0,0,0,.808,3.636,3.2,3.2,0,0,0,2.747,1.091,8.9,8.9,0,0,0,2.363-.283,15.814,15.814,0,0,0,1.636-.525l.808,3.878a18.5,18.5,0,0,1-2.222.747,12.061,12.061,0,0,1-3.232.384,10.227,10.227,0,0,1-3.777-.606,5.566,5.566,0,0,1-2.4-1.757,6.973,6.973,0,0,1-1.252-2.788,17.325,17.325,0,0,1-.364-3.737Zm35.754,16.12a13.639,13.639,0,0,1-.727,4.565,10.107,10.107,0,0,1-2.06,3.515,9.247,9.247,0,0,1-3.212,2.262,10.359,10.359,0,0,1-4.141.808,10.213,10.213,0,0,1-4.121-.808,9.33,9.33,0,0,1-3.192-2.262,10.368,10.368,0,0,1-2.081-3.515,13.286,13.286,0,0,1-.747-4.565,13.109,13.109,0,0,1,.747-4.545,10.228,10.228,0,0,1,2.1-3.495,9.3,9.3,0,0,1,3.212-2.242,10.349,10.349,0,0,1,4.081-.788,10.5,10.5,0,0,1,4.1.788,9.039,9.039,0,0,1,3.212,2.242,10.409,10.409,0,0,1,2.081,3.495A13.111,13.111,0,0,1,525.528,256.122Zm-5.01,0a8.242,8.242,0,0,0-1.353-4.989,4.8,4.8,0,0,0-7.555,0,8.243,8.243,0,0,0-1.353,4.989,8.4,8.4,0,0,0,1.353,5.05,4.768,4.768,0,0,0,7.555,0A8.41,8.41,0,0,0,520.518,256.122Zm22.1-6.141a15.308,15.308,0,0,0-1.677-.424,12.372,12.372,0,0,0-2.485-.222,9.89,9.89,0,0,0-1.717.162,10.188,10.188,0,0,0-1.273.283v16.928h-4.888V246.588a26.9,26.9,0,0,1,3.535-.99,22.084,22.084,0,0,1,4.707-.465c.323,0,.7.02,1.131.061s.862.095,1.293.162a16.567,16.567,0,0,1,2.222.505Zm22.22-4.4a153.961,153.961,0,0,1-7.581,21.816A22.031,22.031,0,0,1,555.6,270.5a9.207,9.207,0,0,1-1.9,2.141,6.774,6.774,0,0,1-2.345,1.232,11.247,11.247,0,0,1-5.238.141,7.584,7.584,0,0,1-1.678-.525l.889-3.919a7.931,7.931,0,0,0,2.882.566,4.486,4.486,0,0,0,2.984-.909,7.442,7.442,0,0,0,1.887-2.808q-2.449-4.741-4.444-9.7a106.671,106.671,0,0,1-3.793-11.15h5.211q.406,1.7.994,3.676,1.219,4.089,2.737,8.08.72,1.9,1.541,3.757,1.346-3.783,2.414-7.656,1.127-4.06,2.05-7.858Z"
            transform="translate(-225.228 -48.295)" fill="#c9d1d9" />
    </g>
</svg>