<svg xmlns="http://www.w3.org/2000/svg" width="9.5" height="16"><path d="M.96 0A.95.95 0 0 0 0 .92v14.16a.95.95 0 0 0 .96.92h7.58a.95.95 0 0 0 .96-.92V.92A.95.95 0 0 0 8.54 0Zm0 .5h7.58A.44.44 0 0 1 9 .92v14.16a.44.44 0 0 1-.47.42H.98a.44.44 0 0 1-.47-.42V.92A.44.44 0 0 1 .96.5ZM5.4 1H3.61v.5h1.78ZM1.23 1a.25.25 0 0 0-.16.42.25.25 0 0 0 .36 0A.25.25 0 0 0 1.25 1ZM1 2v11h7.5V2Zm.5.5H8v10H1.5Zm3.25 2a2.75 2.75 0 0 0-1.97 4.67l.14.12a2.75 2.75 0 0 0 .41.31h.01a2.73 2.73 0 0 0 .4.2l.1.04a2.72 2.72 0 0 0 .33.1 2.8 2.8 0 0 0 .43.06l.16.01.15-.01q.12 0 .23-.02l.2-.04a2.72 2.72 0 0 0 .34-.1l.1-.03a2.73 2.73 0 0 0 .4-.2 2.75 2.75 0 0 0 .41-.3l.14-.13A2.75 2.75 0 0 0 4.75 4.5Zm0 .5a2.25 2.25 0 0 1 1.67 3.76 2.27 2.27 0 0 0-.84-.59 1.25 1.25 0 1 0-1.66 0 2.23 2.23 0 0 0-.83.6A2.25 2.25 0 0 1 4.75 5Zm0 1.5a.75.75 0 1 1-.75.75.74.74 0 0 1 .75-.75Zm-.11 2a1.7 1.7 0 0 1 1.34.6 2.38 2.38 0 0 1-.84.36 1.96 1.96 0 0 1-.78 0 2.38 2.38 0 0 1-.82-.35 1.66 1.66 0 0 1 .76-.55 1.62 1.62 0 0 1 .34-.05Zm.1 5a.75.75 0 1 0 .76.75.76.76 0 0 0-.76-.75Zm0 .5a.25.25 0 1 1-.25.25.25.25 0 0 1 .25-.25Z" fill="#d0d7de"/></svg>