<svg xmlns="http://www.w3.org/2000/svg" width="9.5" height="16" viewBox="0 0 9.5 16">
    <path id="login"
        d="M7.965,0A.946.946,0,0,0,7,.919V15.081A.946.946,0,0,0,7.965,16h7.57a.946.946,0,0,0,.965-.919V.919A.946.946,0,0,0,15.535,0Zm0,.5h7.57A.438.438,0,0,1,16,.919V15.081a.438.438,0,0,1-.465.419H7.965a.438.438,0,0,1-.465-.419V.919A.438.438,0,0,1,7.965.5Zm4.428.5L10.605,1l0,.5,1.787,0ZM8.232,1a.247.247,0,0,0-.159.422.252.252,0,0,0,.354,0A.247.247,0,0,0,8.25,1ZM8,2V13h7.5V2Zm.5.5H15v10H8.5Zm3.25,2A2.749,2.749,0,0,0,9.781,9.168l0,.006.139.121a2.749,2.749,0,0,0,.412.306l.009.006a2.727,2.727,0,0,0,.394.2c.032.013.065.024.1.036a2.718,2.718,0,0,0,.337.1c.068.015.137.025.207.035s.148.017.223.021c.052,0,.1.015.155.015s.1-.012.155-.015q.113-.006.223-.021c.07-.01.139-.02.207-.035a2.722,2.722,0,0,0,.337-.1c.033-.012.066-.023.1-.036a2.727,2.727,0,0,0,.394-.2l.009-.006a2.752,2.752,0,0,0,.411-.3l.139-.121,0-.006A2.749,2.749,0,0,0,11.75,4.5Zm0,.5a2.245,2.245,0,0,1,1.665,3.757,2.265,2.265,0,0,0-.831-.584,1.25,1.25,0,1,0-1.668,0,2.233,2.233,0,0,0-.827.589A2.246,2.246,0,0,1,11.75,5Zm0,1.5a.75.75,0,1,1-.75.75A.743.743,0,0,1,11.75,6.5Zm-.11,2.007a1.707,1.707,0,0,1,1.34.587,2.378,2.378,0,0,1-.836.366,1.963,1.963,0,0,1-.784,0,2.385,2.385,0,0,1-.816-.353,1.662,1.662,0,0,1,.756-.548h0A1.621,1.621,0,0,1,11.64,8.507Zm.105,4.993a.75.75,0,1,0,.755.75A.756.756,0,0,0,11.745,13.5Zm0,.5a.25.25,0,1,1-.255.25A.249.249,0,0,1,11.745,14Z"
        transform="translate(-7)" fill="#d0d7de" />
</svg>