<svg xmlns="http://www.w3.org/2000/svg" width="349" height="74" viewBox="0 0 349 74">
    <path id="Caminho_179" data-name="Caminho 179"
        d="M78.9-.9Q74.2-1.7,72.1-4T70-11.1V-66.6q0-3.5,1.85-4.55A16.439,16.439,0,0,1,76.7-72.8a.363.363,0,0,0,.25-.45q-.05-.35-.35-.35-5.4.3-10.6.3-3.2,0-6.5-.15T53-73.8q-.3,0-.35.35a.363.363,0,0,0,.25.45l2,.6q1.2.4,2.3.7a6.159,6.159,0,0,1,1.95.9,3.846,3.846,0,0,1,1.3,1.6,6.689,6.689,0,0,1,.45,2.7v23.2H19V-67a5.188,5.188,0,0,1,2-4.35A7.952,7.952,0,0,1,25.7-73q.3,0,.3-.4t-.3-.4q-.5,0-1.1.05t-1.1.05q-2.3.1-4.6.15t-4.6.05q-3,0-6-.15T2.2-74v.8a10.36,10.36,0,0,1,5.25,1.65A5.139,5.139,0,0,1,9.9-66.9V-9.3a27.285,27.285,0,0,1-.2,3.7,4.457,4.457,0,0,1-.9,2.25,5.066,5.066,0,0,1-2.05,1.4A18.3,18.3,0,0,1,3.1-1a.363.363,0,0,0-.25.45q.05.35.35.35.5,0,1.25.05T5.7-.1Q7.5,0,9.2,0h3.4q1.5,0,3.45-.05T19.5-.1q2.1-.1,4.2-.1h4.1q.3,0,.3-.4T27.8-1a10.272,10.272,0,0,1-6.65-2.7Q18.9-6,18.9-10.6V-39.2h42v28.4a21.189,21.189,0,0,1-.2,2.65,14.064,14.064,0,0,1-.75,3.05A8.224,8.224,0,0,1,58.5-2.55,2.792,2.792,0,0,1,56.3-1.5a5.088,5.088,0,0,0-1,.1,5.7,5.7,0,0,0-1,.3.363.363,0,0,0-.25.45q.05.35.35.35Q57-.4,59.7-.45T65-.5q3.5,0,6.9.1t6.9.3Zm23.4-6.4v-.8q-3.6-.3-5.05-1.95T95.8-15.5V-56.7q0-2.6,1.35-3.3a15.119,15.119,0,0,1,3.55-1.2q.3-.1.2-.5t-.4-.3a40.667,40.667,0,0,1-4.1.4q-2.1.1-4.2.1-2.2,0-4.3-.1t-4.2-.3q-.3,0-.35.35a.363.363,0,0,0,.25.45,10.025,10.025,0,0,1,3.65,1.2,3.385,3.385,0,0,1,1.55,3.2v41.5a8.263,8.263,0,0,1-1.15,4.45A6.824,6.824,0,0,1,84-8a.363.363,0,0,0-.25.45q.05.35.35.35,2.7-.1,5.3-.15t5.3-.05q1.9,0,3.75.05T102.3-7.3Zm33-14.6a12.4,12.4,0,0,0-1-5,20.041,20.041,0,0,0-2.6-4.35,30.717,30.717,0,0,0-3.65-3.9Q126-37,123.9-38.7q-1.9-1.6-3.7-3.15A28.081,28.081,0,0,1,117.05-45a16.73,16.73,0,0,1-2.2-3.3A8.157,8.157,0,0,1,114-52a8.291,8.291,0,0,1,2.55-6.25,8.805,8.805,0,0,1,6.35-2.45,7.618,7.618,0,0,1,5.95,2.5,13.19,13.19,0,0,1,3.05,6,.392.392,0,0,0,.4.3.392.392,0,0,0,.4-.3q.8-5.2,1.2-10.1,0-.2-.3-.4a25.1,25.1,0,0,0-7.3-1,27.66,27.66,0,0,0-6.1.75,23.085,23.085,0,0,0-6.1,2.3,15.169,15.169,0,0,0-4.7,4,9.262,9.262,0,0,0-1.9,5.85,10.771,10.771,0,0,0,1,4.5,23.8,23.8,0,0,0,2.6,4.35,35.535,35.535,0,0,0,3.7,4.2q2.1,2.05,4.2,4.05,2,1.9,3.9,3.8a43.618,43.618,0,0,1,3.4,3.8,20.742,20.742,0,0,1,2.4,3.75,8.493,8.493,0,0,1,.9,3.75,6.907,6.907,0,0,1-1,3.65,9.741,9.741,0,0,1-2.55,2.8,11.612,11.612,0,0,1-3.45,1.75,12.255,12.255,0,0,1-3.7.6,13.094,13.094,0,0,1-3.75-.55,9.177,9.177,0,0,1-3.25-1.7,9.643,9.643,0,0,1-2.3-2.75,7.419,7.419,0,0,1-.9-3.7V-20q0-.3-.4-.3t-.4.3l-.5,2.4q-.2,1.1-.45,2.3a11.739,11.739,0,0,0-.25,2.4,5.48,5.48,0,0,0,.85,3.15,6.83,6.83,0,0,0,2.2,2.05,9.846,9.846,0,0,0,3,1.15,15.188,15.188,0,0,0,3.15.35,20.724,20.724,0,0,0,6.55-1.15,23.374,23.374,0,0,0,6.3-3.2,17.94,17.94,0,0,0,4.7-4.95A11.659,11.659,0,0,0,135.3-21.9Zm50.1-40.5-.5-.4q-.4.1-.7.2t-.7.2a10.36,10.36,0,0,1-2.8.5h-32a21.069,21.069,0,0,1-3.35-.25,7.7,7.7,0,0,1-3.05-1.25q-.4-.3-.6.2-.2.7-.4,1.35t-.4,1.35q-.4,1.4-.8,2.85a11.419,11.419,0,0,0-.4,3.05l.2,1.3a.392.392,0,0,0,.3.4.28.28,0,0,0,.4-.2,9.383,9.383,0,0,1,2.6-3.7,6.124,6.124,0,0,1,4.2-1.6h12V-15q0,1.7-.1,2.85a3.685,3.685,0,0,1-.6,1.85,3.651,3.651,0,0,1-1.45,1.15,13.811,13.811,0,0,1-2.65.85q-.3.1-.25.5t.35.3q2-.2,3.9-.3t3.9-.1q2.6,0,5.1.15t5.1.35q.3,0,.35-.35a.363.363,0,0,0-.25-.45,7.856,7.856,0,0,1-4.6-2.5,7.06,7.06,0,0,1-1.8-4.9V-58.5h8.8a12.5,12.5,0,0,1,5.55,1.15q2.35,1.15,3.15,4.65.1.3.3.3a.392.392,0,0,0,.4-.3,21.34,21.34,0,0,0,.7-4.8Q185.4-60.1,185.4-62.4ZM247-33.1a32.181,32.181,0,0,0-2.35-12.2,31.149,31.149,0,0,0-6.45-10.05,29.063,29.063,0,0,0-9.6-6.6,24.906,24.906,0,0,0-11.9-1.85l-1.3.1a53.506,53.506,0,0,0-12,3.85,22.769,22.769,0,0,0-7.9,6,22.7,22.7,0,0,0-4.35,8.9A50.926,50.926,0,0,0,189.8-32.4a18.635,18.635,0,0,0,2.75,9.5,34.088,34.088,0,0,0,6.95,8.4,37.332,37.332,0,0,0,9.25,6,23.476,23.476,0,0,0,9.75,2.3,29.707,29.707,0,0,0,10.85-2,28.308,28.308,0,0,0,9.05-5.6,27.638,27.638,0,0,0,6.25-8.55A24.743,24.743,0,0,0,247-33.1Zm-6.7-.1a30.207,30.207,0,0,1-1.35,9.1,22.45,22.45,0,0,1-4,7.55,19.7,19.7,0,0,1-6.55,5.2,19.869,19.869,0,0,1-9,1.95,18.7,18.7,0,0,1-9.6-2.45,23.838,23.838,0,0,1-7.15-6.4,28.7,28.7,0,0,1-4.45-8.85,33.649,33.649,0,0,1-1.5-9.9,27.838,27.838,0,0,1,1.45-9.05,23.473,23.473,0,0,1,4.15-7.5,19,19,0,0,1,6.65-5.1A21.105,21.105,0,0,1,218-60.5a18.729,18.729,0,0,1,9.55,2.4,22.593,22.593,0,0,1,7,6.3,28.473,28.473,0,0,1,4.3,8.8A34.386,34.386,0,0,1,240.3-33.2ZM306.2-7.7l-.3-.8A9.991,9.991,0,0,1,300-9.55a23.513,23.513,0,0,1-5.6-4,50.258,50.258,0,0,1-5.15-5.7q-2.45-3.15-4.65-6.15-1.5-2-2.8-3.85a30.6,30.6,0,0,0-2.4-3.05,35.952,35.952,0,0,0,5.95-7.4A17.067,17.067,0,0,0,288-48.8a12.9,12.9,0,0,0-1.4-6.2,11.887,11.887,0,0,0-3.7-4.2,15.966,15.966,0,0,0-5.3-2.35,25.057,25.057,0,0,0-6.1-.75H251.8q-.3,0-.35.35a.363.363,0,0,0,.25.45,8.163,8.163,0,0,1,3.95,2.35,5.726,5.726,0,0,1,1.65,4.05v39.9a7.356,7.356,0,0,1-1.4,4.3,8.9,8.9,0,0,1-3.5,3,.4.4,0,0,0-.15.55q.15.35.45.25,2.3-.3,4.45-.5t4.45-.2q2.3,0,4.55.15t4.55.35v-.8a6.78,6.78,0,0,1-4.65-2.35,7.368,7.368,0,0,1-1.75-4.95V-29.6a6.2,6.2,0,0,1,1.5-.2h1.6a11.368,11.368,0,0,1,4.85,1,16.354,16.354,0,0,1,4,2.65,25.745,25.745,0,0,1,3.4,3.7q1.55,2.05,2.95,4.15,1.5,2.3,3.15,4.5a26.724,26.724,0,0,0,3.55,3.9,17.069,17.069,0,0,0,4.3,2.8A12.815,12.815,0,0,0,299-6a15.4,15.4,0,0,0,3.65-.45A18.688,18.688,0,0,0,306.2-7.7ZM280.9-45.1q0,5.4-2.15,8.45T271-33.6q-1.7,0-3.3-.1a29.635,29.635,0,0,1-3.3-.4V-59a7.892,7.892,0,0,1,2.3-.65,19.332,19.332,0,0,1,2.4-.15,9.553,9.553,0,0,1,5.1,1.35A12.6,12.6,0,0,1,277.9-55a15.323,15.323,0,0,1,2.25,4.7A18.683,18.683,0,0,1,280.9-45.1Zm70.3-16-.1-.8a3.144,3.144,0,0,0-.5.05,3.143,3.143,0,0,1-.5.05q-1.7.2-3.5.3t-3.7.1q-1.4,0-2.85-.1a17.611,17.611,0,0,1-2.75-.4q-.3-.1-.4.25a.454.454,0,0,0,.2.55,4.6,4.6,0,0,1,1.35,1,2.135,2.135,0,0,1,.55,1.5,7.524,7.524,0,0,1-.85,2.4q-.85,1.8-2.15,4.15t-2.8,4.85q-1.5,2.5-2.7,4.6-1.4,2.4-2.7,4.5t-1.9,3.2q-1.4-2.3-3.7-6.1t-4.5-7.55q-2.2-3.75-3.8-6.7a12.592,12.592,0,0,1-1.6-3.65,1.471,1.471,0,0,1,.55-1.1q.55-.5,1.15-1,.1-.1.05,0t.05,0a.388.388,0,0,0,.1-.45.389.389,0,0,0-.4-.25q-3,.3-5.8.3-2.3,0-4.45-.15T299-61.9q-.3,0-.35.35a.363.363,0,0,0,.25.45,10.285,10.285,0,0,1,3.5,2.55,56.947,56.947,0,0,1,4.7,5.3q2.5,3.15,5.05,6.85t4.65,7.2a68.68,68.68,0,0,1,3.4,6.3,11.338,11.338,0,0,1,1.3,4.2v15.2a4.6,4.6,0,0,1-1.35,3.3,8.941,8.941,0,0,1-3.05,2.1.48.48,0,0,0-.25.5.321.321,0,0,0,.35.3q2.5-.2,4.9-.2h9.1q2.1,0,4.1.1.3,0,.35-.35a.363.363,0,0,0-.25-.45,18.493,18.493,0,0,1-2.2-.6A9.567,9.567,0,0,1,331-9.85a7.416,7.416,0,0,1-1.7-1.5,3.121,3.121,0,0,1-.7-2.05V-29.8a11.837,11.837,0,0,1,1.25-4.5,61.072,61.072,0,0,1,3.2-6.1,80.31,80.31,0,0,1,4.45-6.7q2.5-3.4,5.05-6.35a58.864,58.864,0,0,1,4.8-5A13.054,13.054,0,0,1,351.2-61.1Z"
        transform="translate(-2.2 74)" fill="#c9d1d9" />
</svg>