<svg xmlns="http://www.w3.org/2000/svg" width="15.43" height="16"><g fill="#333"><path data-name="Caminho 209" d="M10.03 1.28H8.36V.42a.41.41 0 0 0-.4-.42.42.42 0 0 0-.1.01L.37 1.71A.5.5 0 0 0 0 2.2v11.63a.5.5 0 0 0 .37.48l7.5 1.7a.42.42 0 0 0 .09 0 .41.41 0 0 0 .4-.41v-.86h1.67a.46.46 0 0 0 .44-.47V1.75a.46.46 0 0 0-.44-.47Zm-2.24 14.1L.58 13.75V2.25L7.78.62v14.76Zm2.1-1.23H8.36V1.85H9.9Z"/><path data-name="Caminho 210" d="M5.78 7.03A.97.97 0 1 0 6.7 8a.95.95 0 0 0-.92-.97Zm0 1.37a.4.4 0 1 1 .34-.4.37.37 0 0 1-.34.4Zm9.57-.2.01-.01v-.01l.01-.01a.29.29 0 0 0 0-.3v-.01h-.01v-.01l-.01-.01-1.67-1.6a.29.29 0 0 0-.4.42l1.15 1.1h-2.9a.29.29 0 0 0 0 .58h2.9l-1.15 1.1a.29.29 0 0 0 .4.41l1.67-1.6Z"/></g></svg>