<svg xmlns="http://www.w3.org/2000/svg" width="15.431" height="16" viewBox="0 0 15.431 16">
	<g id="logout" transform="translate(-197.418 -167.817)">
		<path id="Caminho_209" data-name="Caminho 209"
			d="M207.447,169.092h-1.665v-.853a.41.41,0,0,0-.407-.422.423.423,0,0,0-.093.011l-7.492,1.7a.5.5,0,0,0-.372.478v11.629a.5.5,0,0,0,.372.478l7.492,1.7a.422.422,0,0,0,.093.011.41.41,0,0,0,.407-.422v-.854h1.665a.456.456,0,0,0,.439-.469V169.562A.456.456,0,0,0,207.447,169.092ZM205.206,183.2l-7.211-1.633V170.07l7.211-1.633V183.2Zm2.1-1.233h-1.527v-12.3h1.527Z"
			fill="#d0d7de" />
		<path id="Caminho_210" data-name="Caminho 210"
			d="M703.385,805.23a.974.974,0,1,0,.92.972A.948.948,0,0,0,703.385,805.23Zm0,1.368a.4.4,0,1,1,.343-.4A.373.373,0,0,1,703.385,806.6Zm9.574-.195,0,0,.005-.006,0,0,.005-.007,0,0,.006-.008,0,0,.007-.01h0a.289.289,0,0,0,0-.3h0l-.007-.01,0,0-.006-.008,0,0-.005-.007,0,0-.005-.006,0,0-.005-.005,0,0-1.665-1.593a.288.288,0,0,0-.4.417l1.146,1.1h-2.888a.288.288,0,0,0,0,.577h2.888l-1.146,1.1a.288.288,0,0,0,.4.417l1.665-1.593,0,0Z"
			transform="translate(-500.191 -630.385)" fill="#d0d7de" />
	</g>
</svg>