<svg xmlns="http://www.w3.org/2000/svg" viewBox="0 0 282.59 80">
    <path fill="#e4e6eb"
        d="M28.88 0h14.17v62.93H28.88v-26.7H14.17v26.7H0V0h14.17v24.06h14.71V0Zm28.51 15.44h10.99v47.49H57.39zm10.99-4.45H57.39l-.02-4.25L68.38 0v10.99zm25.88 44.04c2.91 0 5.02-.35 6.36-1.04 1.33-.69 2-1.89 2-3.59 0-1.57-.71-2.87-2.13-3.9-1.42-1.03-3.77-2.15-7.04-3.36-2-.73-3.83-1.5-5.5-2.32s-3.1-1.77-4.31-2.86a11.699 11.699 0 0 1-2.86-3.95c-.7-1.54-1.04-3.44-1.04-5.68 0-4.36 1.6-7.79 4.81-10.31 3.21-2.51 7.57-3.77 13.08-3.77 2.78 0 5.45.26 7.99.77 2.54.52 4.45 1.01 5.72 1.5l-2 8.9c-1.21-.55-2.76-1.04-4.63-1.5-1.88-.45-4.06-.68-6.54-.68-2.24 0-4.06.38-5.45 1.14-1.39.76-2.09 1.92-2.09 3.5 0 .79.14 1.48.41 2.09.27.61.74 1.17 1.41 1.68.67.52 1.54 1.03 2.63 1.54 1.09.52 2.42 1.04 4 1.59 2.6.97 4.81 1.92 6.63 2.86 1.82.94 3.32 2 4.49 3.18 1.18 1.18 2.04 2.53 2.59 4.04.55 1.51.82 3.33.82 5.45 0 4.54-1.68 7.98-5.04 10.31-3.36 2.33-8.16 3.5-14.39 3.5-4.18 0-7.54-.35-10.08-1.04-2.54-.69-4.33-1.26-5.36-1.68l1.91-9.17c1.63.67 3.59 1.3 5.86 1.91 2.27.61 4.86.91 7.77.91Zm37.77-39.32h17.89v7.08h-17.89v21.79c0 2.36.18 4.31.55 5.86s.91 2.76 1.63 3.63c.73.88 1.63 1.5 2.72 1.86 1.09.36 2.36.55 3.81.55 2.54 0 4.58-.29 6.13-.86 1.54-.57 2.62-.98 3.22-1.23l1.63 6.99c-.85.42-2.33.95-4.45 1.59-2.12.64-4.54.95-7.26.95-3.21 0-5.86-.41-7.95-1.23s-3.77-2.04-5.04-3.68-2.17-3.65-2.68-6.04c-.52-2.39-.77-5.16-.77-8.31l-.02-37.94 8.44-6.74.02 15.71Zm69.01 23.61c0 3.75-.54 7.14-1.63 10.17-1.09 3.03-2.62 5.63-4.58 7.81a20.138 20.138 0 0 1-7.04 5.04c-2.72 1.18-5.69 1.77-8.9 1.77s-6.17-.59-8.9-1.77a20.138 20.138 0 0 1-7.04-5.04c-1.97-2.18-3.5-4.78-4.59-7.81-1.09-3.03-1.63-6.42-1.63-10.17s.55-7.07 1.63-10.12c1.09-3.06 2.62-5.68 4.59-7.85s4.31-3.86 7.04-5.04c2.72-1.18 5.69-1.77 8.9-1.77s6.17.59 8.9 1.77a20.23 20.23 0 0 1 7.04 5.04c1.97 2.18 3.5 4.8 4.58 7.85 1.09 3.06 1.63 6.43 1.63 10.12Zm-8.81 0c0-5.33-1.2-9.55-3.59-12.67-2.39-3.12-5.65-4.68-9.76-4.68s-7.37 1.56-9.76 4.68c-2.39 3.12-3.59 7.34-3.59 12.67s1.19 9.55 3.59 12.67c2.39 3.12 5.64 4.68 9.76 4.68s7.37-1.56 9.76-4.68c2.39-3.12 3.59-7.34 3.59-12.67Zm37.23-24.25c1.94 0 3.77.15 5.49.45 1.73.3 2.92.61 3.59.91l-1.18 5.09c-.49-.24-1.47-.5-2.95-.77-1.48-.27-3.44-.41-5.86-.41-2.54 0-4.59.18-6.13.55-1.54.36-2.56.67-3.04.91v41.13h-5.9V18.16c1.51-.67 3.6-1.35 6.27-2.04 2.66-.69 5.9-1.04 9.72-1.04Zm32.69 48.86c-1.97-3.7-3.88-7.55-5.74-11.54a222.635 222.635 0 0 1-9.62-24.37c-1.34-4.08-2.48-8.1-3.44-12.03h6.27c.66 2.91 1.51 6.04 2.54 9.4 1.03 3.36 2.19 6.83 3.49 10.4 1.3 3.57 2.73 7.24 4.31 10.99 1.57 3.75 3.29 7.45 5.15 11.07 1.35-3.74 2.54-7.27 3.58-10.6s2-6.64 2.89-9.93c.89-3.3 1.74-6.67 2.57-10.12.82-3.45 1.67-7.18 2.53-11.21h5.91c-1.97 8.79-4.19 17.33-6.65 25.63s-5.14 15.89-8.05 22.77c-1.15 2.72-2.33 5.07-3.55 7.04-1.21 1.97-2.57 3.59-4.06 4.86-1.49 1.27-3.22 2.21-5.2 2.82-1.98.6-4.3.91-6.97.91-1.52 0-2.9-.18-4.15-.54-1.25-.36-2.02-.64-2.32-.82l1.18-4.9c.24.18.93.44 2.05.77 1.12.33 2.29.5 3.51.5 1.7 0 3.23-.18 4.6-.54 1.37-.36 2.59-.99 3.69-1.86 1.09-.88 2.08-2.01 2.96-3.41.88-1.39 1.73-3.15 2.55-5.27Z" />
</svg>