<svg xmlns="http://www.w3.org/2000/svg" width="9.6" height="16"><g transform="translate(-14 -2)" fill="#d0d7de"><path data-name="Caminho 214" d="M18 18h1.6a4 4 0 0 0 4-4V6a4 4 0 0 0-4-4H18a4 4 0 0 0-4 4v8a4 4 0 0 0 4 4ZM14.53 6A3.47 3.47 0 0 1 18 2.53h1.6A3.47 3.47 0 0 1 23.07 6v1.07c0 1.79-1.62 3.36-4.06 4.26-2.47-.02-4.48-1.33-4.48-2.93Zm0 3.94a5.07 5.07 0 0 0 3.16 1.8 14.4 14.4 0 0 1-3.16.4Zm0 4.06v-1.34c3.95-.06 7.28-1.6 8.54-3.73v.27c0 2.74-3.8 4.98-8.52 5.06l-.02-.26Zm8.54-2.94V14a3.47 3.47 0 0 1-3.47 3.47H18a3.47 3.47 0 0 1-3.37-2.68c3.9-.09 7.2-1.62 8.44-3.73Z"/><path data-name="Caminho 215" d="M18.53 8.13h.54a.27.27 0 1 0 0-.53h-.54a.27.27 0 1 0 0 .53Z"/><path data-name="Caminho 216" d="M16.65 7.87a2.4 2.4 0 0 0 4.3 0c.44-.01.79-.48.79-1.07s-.35-1.06-.79-1.07a2.4 2.4 0 0 0-4.3 0c-.44.01-.78.48-.78 1.07s.34 1.06.78 1.07Zm.02-1.6a.12.12 0 0 1 .04 0 .27.27 0 0 0 .35-.14 1.86 1.86 0 0 1 3.48 0 .27.27 0 0 0 .35.15.12.12 0 0 1 .04-.01c.11 0 .27.2.27.53s-.16.53-.27.53a.12.12 0 0 1-.04-.01.27.27 0 0 0-.35.15 1.86 1.86 0 0 1-3.48 0 .27.27 0 0 0-.35-.15.12.12 0 0 1-.04.01c-.11 0-.27-.2-.27-.53s.16-.53.27-.53Z"/><circle data-name="Elipse 41" cx=".27" cy=".27" r=".27" transform="translate(17.73 6.53)"/><circle data-name="Elipse 42" cx=".27" cy=".27" r=".27" transform="translate(19.33 6.53)"/></g></svg>