<svg xmlns="http://www.w3.org/2000/svg" width="16" height="13.714" viewBox="0 0 16 13.714">
	<path id="new_account"
		d="M19.686,10.814a4.079,4.079,0,0,0-2.495-2.458A4.183,4.183,0,0,0,12,9.754a4.185,4.185,0,0,0-5.191-1.4,4.079,4.079,0,0,0-2.495,2.458,5.125,5.125,0,0,0,1.463,5.609l5.957,5.192a.407.407,0,0,0,.532,0l5.957-5.192A5.126,5.126,0,0,0,19.686,10.814Zm-1.839,5.178L12,21.089l-5.847-5.1a4.545,4.545,0,0,1-1.306-4.971A3.529,3.529,0,0,1,7,8.893,4.89,4.89,0,0,1,8.68,8.571a3.474,3.474,0,0,1,3.036,1.793,1.433,1.433,0,0,0,.825,1.454,1.016,1.016,0,0,1,.619.54,1.042,1.042,0,0,1-.113.759.852.852,0,0,0-.37.109.826.826,0,0,0-.394.526l-.143.6a.306.306,0,0,1-.26.227l-.451.059c.12-.237.329-.71.032-.967a1.763,1.763,0,0,1-.274-.6,1.833,1.833,0,0,0-2.871-.9,1.958,1.958,0,0,0-.527,2.648,1.4,1.4,0,0,0,.568.541.767.767,0,0,1,.364.5,3.6,3.6,0,0,0,2.631,2.84,4.174,4.174,0,0,0,1.109.152,3.722,3.722,0,0,0,2.107-.635,2.662,2.662,0,0,0,1.219-2.56.835.835,0,0,0,.375-.145.814.814,0,0,0,.225-1.087l-.466-.756a1.417,1.417,0,0,0-1.222-.747,1.458,1.458,0,0,0-.97.465.831.831,0,0,0-.126-.111,1.523,1.523,0,0,0,.1-1.105,1.547,1.547,0,0,0-.936-.88.894.894,0,0,1-.472-.943c.228-.418,1.591-2.591,4.7-1.456a3.53,3.53,0,0,1,2.158,2.128A4.545,4.545,0,0,1,17.847,15.992Zm-7.131.283a.284.284,0,0,0,.351.2l1.525-.414a1.589,1.589,0,0,0,1.119-1.11l.429.664a.286.286,0,0,0,.48-.31l-.713-1.1-.012-.065a.233.233,0,0,1,.045-.112,1.083,1.083,0,0,1,.776-.532.921.921,0,0,1,.726.487l.459.744a.238.238,0,0,1-.069.321.259.259,0,0,1-.207.043.253.253,0,0,1-.168-.116l-.313-.511a.286.286,0,0,0-.488.3l.313.511a.821.821,0,0,0,.22.235,2.115,2.115,0,0,1-.944,2.24,3.293,3.293,0,0,1-2.742.4A3.051,3.051,0,0,1,9.28,15.741a1.339,1.339,0,0,0-.637-.879.909.909,0,0,1-.341-.3l-.015-.029a1.415,1.415,0,0,1,.359-1.9,1.263,1.263,0,0,1,2,.613,2.283,2.283,0,0,0,.393.805,1.314,1.314,0,0,1-.149.379.529.529,0,0,0,.036.55.537.537,0,0,0,.517.226l.512-.067a.881.881,0,0,0,.741-.661l.143-.595a.259.259,0,0,1,.124-.165.279.279,0,0,1,.22-.026.259.259,0,0,1,.184.312l-.205.786a1.016,1.016,0,0,1-.72.717l-1.525.414A.286.286,0,0,0,10.716,16.275Z"
		transform="translate(-4 -8)" fill="#d0d7de" />
</svg>