<svg xmlns="http://www.w3.org/2000/svg" width="16" height="13.71"><path d="M15.69 2.81a4.08 4.08 0 0 0-2.5-2.45A4.18 4.18 0 0 0 8 1.76 4.18 4.18 0 0 0 2.8.35 4.08 4.08 0 0 0 .32 2.8a5.13 5.13 0 0 0 1.47 5.61l5.95 5.2a.4.4 0 0 0 .54 0l5.95-5.2a5.13 5.13 0 0 0 1.47-5.6ZM13.85 8 8 13.1l-5.85-5.1a4.54 4.54 0 0 1-1.3-4.97A3.53 3.53 0 0 1 3 .89 4.89 4.89 0 0 1 4.68.57a3.47 3.47 0 0 1 3.04 1.8 1.43 1.43 0 0 0 .82 1.45 1.02 1.02 0 0 1 .62.54 1.04 1.04 0 0 1-.11.76.85.85 0 0 0-.37.1.83.83 0 0 0-.4.53l-.14.6a.3.3 0 0 1-.26.23l-.45.06c.12-.24.33-.71.03-.97a1.76 1.76 0 0 1-.27-.6 1.83 1.83 0 0 0-2.87-.9 1.96 1.96 0 0 0-.53 2.65 1.4 1.4 0 0 0 .57.54.77.77 0 0 1 .36.5 3.6 3.6 0 0 0 2.63 2.84 4.17 4.17 0 0 0 1.11.15 3.72 3.72 0 0 0 2.1-.63 2.66 2.66 0 0 0 1.23-2.56.83.83 0 0 0 .37-.15.81.81 0 0 0 .23-1.08l-.47-.76a1.42 1.42 0 0 0-1.22-.75 1.46 1.46 0 0 0-.97.47.83.83 0 0 0-.13-.11 1.52 1.52 0 0 0 .1-1.1 1.55 1.55 0 0 0-.93-.89.9.9 0 0 1-.48-.94c.23-.42 1.6-2.6 4.7-1.46a3.53 3.53 0 0 1 2.16 2.13 4.54 4.54 0 0 1-1.3 4.97Zm-7.13.28a.28.28 0 0 0 .35.2l1.52-.4a1.59 1.59 0 0 0 1.12-1.12l.43.66a.29.29 0 0 0 .48-.3l-.71-1.1-.02-.07a.23.23 0 0 1 .05-.11 1.08 1.08 0 0 1 .78-.53.92.92 0 0 1 .72.48l.46.75a.24.24 0 0 1-.07.32.26.26 0 0 1-.2.04.25.25 0 0 1-.17-.12l-.32-.5a.29.29 0 0 0-.48.3l.3.5a.82.82 0 0 0 .23.24 2.12 2.12 0 0 1-.94 2.24 3.3 3.3 0 0 1-2.75.4 3.05 3.05 0 0 1-2.22-2.4 1.34 1.34 0 0 0-.64-.89.9.9 0 0 1-.34-.3l-.01-.03a1.42 1.42 0 0 1 .36-1.9 1.26 1.26 0 0 1 2 .62 2.28 2.28 0 0 0 .39.8 1.31 1.31 0 0 1-.15.38.53.53 0 0 0 .04.55.54.54 0 0 0 .51.23l.51-.07a.88.88 0 0 0 .75-.66l.14-.6a.26.26 0 0 1 .12-.16.28.28 0 0 1 .22-.03.26.26 0 0 1 .19.31l-.2.79a1.02 1.02 0 0 1-.73.72l-1.52.41a.29.29 0 0 0-.2.35Z" fill="#d0d7de"/></svg>