<svg xmlns="http://www.w3.org/2000/svg" width="9.6" height="16" viewBox="0 0 9.6 16">
    <g id="new_nickname" transform="translate(-14 -2)">
        <path id="Caminho_214" data-name="Caminho 214"
            d="M18,18h1.6a4,4,0,0,0,4-4V6a4,4,0,0,0-4-4H18a4,4,0,0,0-4,4v8a4,4,0,0,0,4,4ZM14.533,6A3.471,3.471,0,0,1,18,2.533h1.6A3.471,3.471,0,0,1,23.067,6V7.067c0,1.789-1.62,3.363-4.058,4.265C16.536,11.311,14.533,10,14.533,8.4Zm0,3.939a5.068,5.068,0,0,0,3.159,1.795,14.406,14.406,0,0,1-3.159.4Zm0,4.061V12.663c3.942-.067,7.28-1.606,8.533-3.733V9.2c0,2.74-3.8,4.977-8.52,5.063C14.54,14.176,14.533,14.089,14.533,14Zm8.533-2.937V14A3.471,3.471,0,0,1,19.6,17.467H18a3.47,3.47,0,0,1-3.371-2.672C18.529,14.7,21.822,13.173,23.067,11.063Z"
            fill="#d0d7de" />
        <path id="Caminho_215" data-name="Caminho 215"
            d="M30.267,23.533H30.8a.267.267,0,1,0,0-.533h-.533a.267.267,0,1,0,0,.533Z"
            transform="translate(-11.733 -15.4)" fill="#d0d7de" />
        <path id="Caminho_216" data-name="Caminho 216"
            d="M21.785,14.466a2.4,2.4,0,0,0,4.3,0c.442-.01.785-.475.785-1.067s-.344-1.057-.785-1.067a2.4,2.4,0,0,0-4.3,0c-.442.01-.785.475-.785,1.067S21.344,14.456,21.785,14.466Zm.015-1.6a.119.119,0,0,1,.04.012.267.267,0,0,0,.353-.15,1.864,1.864,0,0,1,3.481,0,.267.267,0,0,0,.353.15.119.119,0,0,1,.04-.012c.109,0,.267.208.267.533s-.158.533-.267.533a.119.119,0,0,1-.04-.012.267.267,0,0,0-.353.15,1.864,1.864,0,0,1-3.481,0,.267.267,0,0,0-.353-.15.119.119,0,0,1-.04.012c-.109,0-.267-.208-.267-.533S21.691,12.866,21.8,12.866Z"
            transform="translate(-5.133 -6.6)" fill="#d0d7de" />
        <circle id="Elipse_41" data-name="Elipse 41" cx="0.267" cy="0.267" r="0.267" transform="translate(17.733 6.533)"
            fill="#d0d7de" />
        <circle id="Elipse_42" data-name="Elipse 42" cx="0.267" cy="0.267" r="0.267" transform="translate(19.333 6.533)"
            fill="#d0d7de" />
    </g>
</svg>