<svg xmlns="http://www.w3.org/2000/svg" width="16.5" height="16.5"><g transform="translate(-17.25 -17.25)"><path data-name="Caminho 211" d="M33.5 25.5a8 8 0 1 1-8-8 8 8 0 0 1 8 8Z" fill="none" stroke="#333" stroke-linecap="round" stroke-linejoin="round" stroke-miterlimit="10" stroke-width=".5"/><path data-name="Caminho 212" d="M23.65 23.04a1.23 1.23 0 1 1-1.23-1.23 1.23 1.23 0 0 1 1.23 1.23Z" fill="#333"/><circle data-name="Elipse 40" cx="1.23" cy="1.23" r="1.23" transform="translate(27.35 21.8)" fill="#333"/><path data-name="Caminho 213" d="M29.2 26.73a4 4 0 0 1-3.7 2.47 3.98 3.98 0 0 1-1.53-.3 4 4 0 0 1-2.16-2.17 4 4 0 0 0 2.17 2.16 4 4 0 0 0 3.05 0 4 4 0 0 0 2.16-2.16Z" fill="none" stroke="#333" stroke-linecap="round" stroke-linejoin="round" stroke-miterlimit="10" stroke-width=".5"/></g></svg>