<svg xmlns="http://www.w3.org/2000/svg" width="16" height="15.98"><path data-name="Layer 2" d="M13.56.08a.28.28 0 0 0-.4 0l-6.3 5.9a5.33 5.33 0 0 1-5.42 1.06.28.28 0 0 0-.36.3A18.17 18.17 0 0 1 0 15.63a.27.27 0 0 0 .35.34l.13-.04v-.02a18.2 18.2 0 0 1 8.14-1 .28.28 0 0 0 .3-.38A5.33 5.33 0 0 1 10 9.11l5.94-6.28a.28.28 0 0 0 0-.39ZM8.3 14.33a18.62 18.62 0 0 0-6.92.73l3.18-3.18a.7.7 0 1 0-.4-.4L.9 14.78a18.65 18.65 0 0 0 .78-7.1 5.9 5.9 0 0 0 5.37-1.13l2.4 2.4a5.87 5.87 0 0 0-1.13 5.38Zm1.49-5.8L7.46 6.2l5.9-5.53 1.97 1.98Z" fill="#d0d7de"/></svg>