<svg xmlns="http://www.w3.org/2000/svg" width="16" height="15.978" viewBox="0 0 16 15.978">
    <path id="Layer_2" data-name="Layer 2"
        d="M17.367,3.1a.278.278,0,0,0-.387,0L10.679,9h0a5.334,5.334,0,0,1-5.423,1.058.278.278,0,0,0-.367.3,18.169,18.169,0,0,1-1.064,8.291.269.269,0,0,0,.342.342l.134-.045h0v-.014a18.2,18.2,0,0,1,8.141-1,.283.283,0,0,0,.3-.381A5.332,5.332,0,0,1,13.8,12.129h0l5.936-6.281a.278.278,0,0,0,0-.387ZM12.122,17.352a18.623,18.623,0,0,0-6.916.724L8.383,14.9a.7.7,0,1,0-.393-.4L4.7,17.8a18.653,18.653,0,0,0,.78-7.094,5.9,5.9,0,0,0,5.373-1.133l2.4,2.4A5.866,5.866,0,0,0,12.122,17.352Zm1.487-5.8L11.27,9.206l5.894-5.524,1.979,1.982Z"
        transform="translate(-3.811 -3.019)" fill="#d0d7de" />
</svg>